<svg id="visual" viewBox="0 0 900 600" width="900" height="600" xmlns="http://www.w3.org/2000/svg" xmlns:xlink="http://www.w3.org/1999/xlink" version="1.1"><path d="M0 381L25 379.5C50 378 100 375 150 380.8C200 386.7 250 401.3 300 405.2C350 409 400 402 450 391.8C500 381.7 550 368.3 600 373C650 377.7 700 400.3 750 399.7C800 399 850 375 875 363L900 351L900 601L875 601C850 601 800 601 750 601C700 601 650 601 600 601C550 601 500 601 450 601C400 601 350 601 300 601C250 601 200 601 150 601C100 601 50 601 25 601L0 601Z" fill="#fa7268"></path><path d="M0 455L25 451.2C50 447.3 100 439.7 150 432.3C200 425 250 418 300 418.7C350 419.3 400 427.7 450 428.2C500 428.7 550 421.3 600 425.7C650 430 700 446 750 455C800 464 850 466 875 467L900 468L900 601L875 601C850 601 800 601 750 601C700 601 650 601 600 601C550 601 500 601 450 601C400 601 350 601 300 601C250 601 200 601 150 601C100 601 50 601 25 601L0 601Z" fill="#ef5f67"></path><path d="M0 449L25 455.7C50 462.3 100 475.7 150 478.3C200 481 250 473 300 471.3C350 469.7 400 474.3 450 472.2C500 470 550 461 600 460.2C650 459.3 700 466.7 750 467C800 467.3 850 460.7 875 457.3L900 454L900 601L875 601C850 601 800 601 750 601C700 601 650 601 600 601C550 601 500 601 450 601C400 601 350 601 300 601C250 601 200 601 150 601C100 601 50 601 25 601L0 601Z" fill="#e34c67"></path><path d="M0 503L25 500.8C50 498.7 100 494.3 150 498C200 501.7 250 513.3 300 515.8C350 518.3 400 511.7 450 510.3C500 509 550 513 600 509.5C650 506 700 495 750 489.7C800 484.3 850 484.7 875 484.8L900 485L900 601L875 601C850 601 800 601 750 601C700 601 650 601 600 601C550 601 500 601 450 601C400 601 350 601 300 601C250 601 200 601 150 601C100 601 50 601 25 601L0 601Z" fill="#d53867"></path><path d="M0 544L25 546.8C50 549.7 100 555.3 150 555C200 554.7 250 548.3 300 543.8C350 539.3 400 536.7 450 535.5C500 534.3 550 534.7 600 536.8C650 539 700 543 750 548.5C800 554 850 561 875 564.5L900 568L900 601L875 601C850 601 800 601 750 601C700 601 650 601 600 601C550 601 500 601 450 601C400 601 350 601 300 601C250 601 200 601 150 601C100 601 50 601 25 601L0 601Z" fill="#c62368"></path></svg>